<mxfile host="app.diagrams.net" modified="2023-09-01T00:28:01.434Z" agent="Mozilla/5.0 (X11; Ubuntu; Linux x86_64; rv:109.0) Gecko/20100101 Firefox/117.0" etag="ANl8YtwlB4pyVx_d6G6I" version="21.7.1" type="device">
  <diagram name="PÃ¡gina-1" id="iKqBDDgj-vPdvqFylqh1">
    <mxGraphModel dx="1195" dy="638" grid="1" gridSize="10" guides="1" tooltips="1" connect="1" arrows="1" fold="1" page="1" pageScale="1" pageWidth="827" pageHeight="1169" math="0" shadow="0">
      <root>
        <mxCell id="0" />
        <mxCell id="1" parent="0" />
        <mxCell id="oa0foDp-f6U0VhCYuiGb-37" value="Extends" style="endArrow=block;endSize=16;endFill=0;html=1;rounded=0;" edge="1" parent="1">
          <mxGeometry width="160" relative="1" as="geometry">
            <mxPoint x="560" y="99.58" as="sourcePoint" />
            <mxPoint x="350" y="100" as="targetPoint" />
            <mxPoint as="offset" />
          </mxGeometry>
        </mxCell>
        <mxCell id="oa0foDp-f6U0VhCYuiGb-25" style="edgeStyle=orthogonalEdgeStyle;rounded=0;orthogonalLoop=1;jettySize=auto;html=1;" edge="1" parent="1" source="oa0foDp-f6U0VhCYuiGb-10">
          <mxGeometry relative="1" as="geometry">
            <mxPoint x="120" y="210" as="targetPoint" />
            <Array as="points">
              <mxPoint x="250" y="190" />
              <mxPoint x="120" y="190" />
              <mxPoint x="120" y="210" />
            </Array>
          </mxGeometry>
        </mxCell>
        <mxCell id="oa0foDp-f6U0VhCYuiGb-28" style="edgeStyle=orthogonalEdgeStyle;rounded=0;orthogonalLoop=1;jettySize=auto;html=1;" edge="1" parent="1" source="oa0foDp-f6U0VhCYuiGb-10">
          <mxGeometry relative="1" as="geometry">
            <mxPoint x="200" y="250" as="targetPoint" />
            <Array as="points">
              <mxPoint x="250" y="210" />
              <mxPoint x="200" y="210" />
              <mxPoint x="200" y="250" />
            </Array>
          </mxGeometry>
        </mxCell>
        <mxCell id="oa0foDp-f6U0VhCYuiGb-31" style="edgeStyle=orthogonalEdgeStyle;rounded=0;orthogonalLoop=1;jettySize=auto;html=1;" edge="1" parent="1" source="oa0foDp-f6U0VhCYuiGb-10">
          <mxGeometry relative="1" as="geometry">
            <mxPoint x="300" y="250" as="targetPoint" />
            <Array as="points">
              <mxPoint x="250" y="210" />
              <mxPoint x="300" y="210" />
            </Array>
          </mxGeometry>
        </mxCell>
        <mxCell id="oa0foDp-f6U0VhCYuiGb-34" style="edgeStyle=orthogonalEdgeStyle;rounded=0;orthogonalLoop=1;jettySize=auto;html=1;" edge="1" parent="1" source="oa0foDp-f6U0VhCYuiGb-10">
          <mxGeometry relative="1" as="geometry">
            <mxPoint x="390" y="210" as="targetPoint" />
            <Array as="points">
              <mxPoint x="250" y="190" />
              <mxPoint x="390" y="190" />
              <mxPoint x="390" y="200" />
            </Array>
          </mxGeometry>
        </mxCell>
        <mxCell id="oa0foDp-f6U0VhCYuiGb-10" value="Kiosco" style="swimlane;fontStyle=1;align=center;verticalAlign=top;childLayout=stackLayout;horizontal=1;startSize=26;horizontalStack=0;resizeParent=1;resizeParentMax=0;resizeLast=0;collapsible=1;marginBottom=0;whiteSpace=wrap;html=1;" vertex="1" parent="1">
          <mxGeometry x="160" y="40" width="180" height="130" as="geometry" />
        </mxCell>
        <mxCell id="oa0foDp-f6U0VhCYuiGb-11" value="&lt;div&gt;#tipoDeProducto: string;&lt;/div&gt;&lt;div&gt;#precioCosto : number;&lt;br&gt;&lt;/div&gt;" style="text;strokeColor=none;fillColor=none;align=left;verticalAlign=top;spacingLeft=4;spacingRight=4;overflow=hidden;rotatable=0;points=[[0,0.5],[1,0.5]];portConstraint=eastwest;whiteSpace=wrap;html=1;" vertex="1" parent="oa0foDp-f6U0VhCYuiGb-10">
          <mxGeometry y="26" width="180" height="54" as="geometry" />
        </mxCell>
        <mxCell id="oa0foDp-f6U0VhCYuiGb-12" value="" style="line;strokeWidth=1;fillColor=none;align=left;verticalAlign=middle;spacingTop=-1;spacingLeft=3;spacingRight=3;rotatable=0;labelPosition=right;points=[];portConstraint=eastwest;strokeColor=inherit;" vertex="1" parent="oa0foDp-f6U0VhCYuiGb-10">
          <mxGeometry y="80" width="180" height="8" as="geometry" />
        </mxCell>
        <mxCell id="oa0foDp-f6U0VhCYuiGb-13" value="&lt;div&gt;+getTipoDeProducto() : string;&lt;/div&gt;&lt;div&gt;+getPrecioCosto() : number;&lt;br&gt;&lt;/div&gt;" style="text;strokeColor=none;fillColor=none;align=left;verticalAlign=top;spacingLeft=4;spacingRight=4;overflow=hidden;rotatable=0;points=[[0,0.5],[1,0.5]];portConstraint=eastwest;whiteSpace=wrap;html=1;" vertex="1" parent="oa0foDp-f6U0VhCYuiGb-10">
          <mxGeometry y="88" width="180" height="42" as="geometry" />
        </mxCell>
        <mxCell id="oa0foDp-f6U0VhCYuiGb-14" style="edgeStyle=orthogonalEdgeStyle;rounded=0;orthogonalLoop=1;jettySize=auto;html=1;exitX=0.5;exitY=0;exitDx=0;exitDy=0;entryX=0.563;entryY=0.004;entryDx=0;entryDy=0;entryPerimeter=0;" edge="1" parent="1" source="oa0foDp-f6U0VhCYuiGb-10" target="oa0foDp-f6U0VhCYuiGb-10">
          <mxGeometry relative="1" as="geometry" />
        </mxCell>
        <mxCell id="oa0foDp-f6U0VhCYuiGb-53" style="edgeStyle=orthogonalEdgeStyle;rounded=0;orthogonalLoop=1;jettySize=auto;html=1;" edge="1" parent="1" source="oa0foDp-f6U0VhCYuiGb-20">
          <mxGeometry relative="1" as="geometry">
            <mxPoint x="570" y="240" as="targetPoint" />
            <Array as="points">
              <mxPoint x="660" y="200" />
              <mxPoint x="661" y="200" />
              <mxPoint x="661" y="240" />
            </Array>
          </mxGeometry>
        </mxCell>
        <mxCell id="oa0foDp-f6U0VhCYuiGb-20" value="Stock" style="swimlane;fontStyle=1;align=center;verticalAlign=top;childLayout=stackLayout;horizontal=1;startSize=26;horizontalStack=0;resizeParent=1;resizeParentMax=0;resizeLast=0;collapsible=1;marginBottom=0;whiteSpace=wrap;html=1;" vertex="1" parent="1">
          <mxGeometry x="560" y="40" width="200" height="120" as="geometry" />
        </mxCell>
        <mxCell id="oa0foDp-f6U0VhCYuiGb-21" value="&lt;div&gt;+productosDisponibles : [ ] ;&lt;/div&gt;+productosVendidos : [ ] ;" style="text;strokeColor=none;fillColor=none;align=left;verticalAlign=top;spacingLeft=4;spacingRight=4;overflow=hidden;rotatable=0;points=[[0,0.5],[1,0.5]];portConstraint=eastwest;whiteSpace=wrap;html=1;" vertex="1" parent="oa0foDp-f6U0VhCYuiGb-20">
          <mxGeometry y="26" width="200" height="44" as="geometry" />
        </mxCell>
        <mxCell id="oa0foDp-f6U0VhCYuiGb-22" value="" style="line;strokeWidth=1;fillColor=none;align=left;verticalAlign=middle;spacingTop=-1;spacingLeft=3;spacingRight=3;rotatable=0;labelPosition=right;points=[];portConstraint=eastwest;strokeColor=inherit;" vertex="1" parent="oa0foDp-f6U0VhCYuiGb-20">
          <mxGeometry y="70" width="200" height="8" as="geometry" />
        </mxCell>
        <mxCell id="oa0foDp-f6U0VhCYuiGb-23" value="&lt;div&gt;+cargarProductos (productos: [ ])&lt;/div&gt;&lt;div&gt;+venderProductos(nombreArticulo)&lt;br&gt;&lt;/div&gt;" style="text;strokeColor=none;fillColor=none;align=left;verticalAlign=top;spacingLeft=4;spacingRight=4;overflow=hidden;rotatable=0;points=[[0,0.5],[1,0.5]];portConstraint=eastwest;whiteSpace=wrap;html=1;" vertex="1" parent="oa0foDp-f6U0VhCYuiGb-20">
          <mxGeometry y="78" width="200" height="42" as="geometry" />
        </mxCell>
        <mxCell id="oa0foDp-f6U0VhCYuiGb-26" value="&lt;div&gt;Yerba&lt;/div&gt;&lt;div&gt;Playadito&lt;/div&gt;" style="html=1;whiteSpace=wrap;" vertex="1" parent="1">
          <mxGeometry x="80" y="220" width="80" height="30" as="geometry" />
        </mxCell>
        <mxCell id="oa0foDp-f6U0VhCYuiGb-29" value="&lt;div&gt;Alfajor &lt;br&gt;&lt;/div&gt;&lt;div&gt;fantoche&lt;/div&gt;" style="html=1;whiteSpace=wrap;" vertex="1" parent="1">
          <mxGeometry x="160" y="260" width="80" height="40" as="geometry" />
        </mxCell>
        <mxCell id="oa0foDp-f6U0VhCYuiGb-33" value="&lt;div&gt;CocaCola&lt;/div&gt;" style="html=1;whiteSpace=wrap;" vertex="1" parent="1">
          <mxGeometry x="270" y="260" width="60" height="40" as="geometry" />
        </mxCell>
        <mxCell id="oa0foDp-f6U0VhCYuiGb-36" value="&lt;div&gt;Chicles&amp;nbsp;&lt;/div&gt;&lt;div&gt;bobaloo&lt;/div&gt;" style="html=1;whiteSpace=wrap;" vertex="1" parent="1">
          <mxGeometry x="350" y="220" width="80" height="30" as="geometry" />
        </mxCell>
        <mxCell id="oa0foDp-f6U0VhCYuiGb-44" value="Relation" style="endArrow=open;html=1;endSize=12;startArrow=diamondThin;startSize=14;startFill=0;edgeStyle=orthogonalEdgeStyle;rounded=0;" edge="1" parent="1">
          <mxGeometry relative="1" as="geometry">
            <mxPoint x="340" y="150" as="sourcePoint" />
            <mxPoint x="520" y="210" as="targetPoint" />
          </mxGeometry>
        </mxCell>
        <mxCell id="oa0foDp-f6U0VhCYuiGb-45" value="0..n" style="edgeLabel;resizable=0;html=1;align=left;verticalAlign=top;" connectable="0" vertex="1" parent="oa0foDp-f6U0VhCYuiGb-44">
          <mxGeometry x="-1" relative="1" as="geometry" />
        </mxCell>
        <mxCell id="oa0foDp-f6U0VhCYuiGb-52" value="&lt;div&gt;stockKiosco&lt;/div&gt;" style="html=1;whiteSpace=wrap;" vertex="1" parent="1">
          <mxGeometry x="480" y="215" width="80" height="40" as="geometry" />
        </mxCell>
      </root>
    </mxGraphModel>
  </diagram>
</mxfile>
